# xmcd
#
# Track frame offsets: 
#        150
#        18814
#        38340
#        55077
#        82990
#        103202
#        124060
#        140817
#        158171
#        179888
#        193216
#        212088
#        233098
#        254029
#        273770
#        290246
#        310026
#        330270
#
# Disc length: 4684 seconds
#
# Revision: 2
# Processed by: cddbd v1.5.2PL0 Copyright (c) Steve Scherf et al.
# Submitted via: ExactAudioCopy v0.95b4
#
DISCID=05124a12
DTITLE=Nina Badric - The Best Of
DYEAR=2004
DGENRE=Pop/Funk
TTITLE0=Ti Si Mene
TTITLE1=Takvi Kao Ti
TTITLE2=Za Dobre I Lose Dane
TTITLE3=Godine Nestvarne
TTITLE4=Ja Sam Vlak
TTITLE5=Ja Za Ljubav Necu Moliti
TTITLE6=Budi Tu
TTITLE7=I'm So Excited
TTITLE8=Trebam Te
TTITLE9=Carobno Jutro
TTITLE10=Srecu Dugujes Meni
TTITLE11=Jos I Sad
TTITLE12=Tko Si Ti
TTITLE13=Nije Mi Svejedno
TTITLE14=Nek' Ti Bude Kao Meni
TTITLE15=Ako Kazes Da Me Ne Volis 
TTITLE16=Ostavljam Ti Sve
TTITLE17=Ti Ne Znas Kako Je
EXTD=
EXTT0=
EXTT1=
EXTT2=
EXTT3=
EXTT4=
EXTT5=
EXTT6=
EXTT7=
EXTT8=
EXTT9=
EXTT10=
EXTT11=
EXTT12=
EXTT13=
EXTT14=
EXTT15=
EXTT16=
EXTT17=
PLAYORDER=
